<?xml version="1.0" encoding="UTF-8"?>
<!DOCTYPE svg PUBLIC "-//W3C//DTD SVG 1.1//EN" "http://www.w3.org/Graphics/SVG/1.1/DTD/svg11.dtd">
<!-- Creator: CorelDRAW -->
<svg xmlns="http://www.w3.org/2000/svg" xml:space="preserve" width="512px" height="512px" version="1.1" style="shape-rendering:geometricPrecision; text-rendering:geometricPrecision; image-rendering:optimizeQuality; fill-rule:evenodd; clip-rule:evenodd"
viewBox="0 0 512 512"
 xmlns:xlink="http://www.w3.org/1999/xlink"
 xmlns:xodm="http://www.corel.com/coreldraw/odm/2003">
 <defs>
  <style type="text/css">
   <![CDATA[
    .fil5 {fill:#2B4D66}
    .fil0 {fill:#4878A7}
    .fil3 {fill:#5085AE}
    .fil1 {fill:#5994B6}
    .fil2 {fill:#CFFFFF}
    .fil6 {fill:#F1DCC0}
    .fil7 {fill:#F4A08C}
    .fil4 {fill:white}
   ]]>
  </style>
 </defs>
 <g id="Layer_x0020_1">
  <metadata id="CorelCorpID_0Corel-Layer"/>
  <g id="_2023797058656">
   <g>
    <path class="fil0" d="M315.82 471.49c-3.51,0 -80.27,-4.52 -98.57,-8.32l0 1.11c0,3.98 -3.23,7.21 -7.22,7.21 -3.98,0 -7.21,-3.23 -7.21,-7.21l0 -43.98c0,-3.99 3.23,-7.22 7.21,-7.22 2.63,0 4.92,1.4 6.18,3.5 16.22,-2.99 96.03,-3.5 99.61,-3.5 3.98,0 7.21,3.23 7.21,7.22l0 43.98c0,3.98 -3.22,7.21 -7.21,7.21z"/>
    <path class="fil1" d="M24.81 420.3l0 -340.28c0,-1.91 0.76,-3.75 2.11,-5.1 1.36,-1.36 3.19,-2.12 5.1,-2.12 151.74,0 303.41,0 455.14,0l0 282.12 -462.35 0 0 65.38z"/>
    <path class="fil2" d="M466.55 334.31l0 -240.9c-140.38,0 -280.75,0 -421.13,0l0 240.9 421.13 0z"/>
    <path class="fil3" d="M401.82 512l-277.78 0c-3.99,0 -7.22,-3.23 -7.22,-7.21l0 -20.26c0,-15.14 12.33,-27.46 27.47,-27.46l237.27 0c15.15,0 27.47,12.32 27.47,27.46l0 20.26c0,3.98 -3.23,7.21 -7.21,7.21z"/>
    <path class="fil0" d="M435 512l-344.14 0c-3.99,0 -7.22,-3.23 -7.22,-7.21 0,-3.99 3.23,-7.22 7.22,-7.22l344.14 0c3.98,0 7.21,3.23 7.21,7.22 0,3.98 -3.23,7.21 -7.21,7.21z"/>
    <path class="fil1" d="M32.02 427.51c-3.98,0 -7.21,-3.23 -7.21,-7.21l0 -75.69 462.35 0 0 75.69c0,3.98 -3.23,7.21 -7.22,7.21l-447.92 0z"/>
    <path class="fil4" d="M272.94 398.43l-33.92 0c-3.98,0 -7.21,-3.23 -7.21,-7.22 0,-3.98 3.23,-7.21 7.21,-7.21l33.92 0c3.99,0 7.22,3.23 7.22,7.21 0,3.99 -3.23,7.22 -7.22,7.22z"/>
   </g>
   <path class="fil5" d="M195.97 298.97c-1.13,0 -2.28,-0.27 -3.35,-0.84l-79.31 -42.32c-2.32,-1.25 -3.77,-3.67 -3.77,-6.3 0,-2.64 1.45,-5.06 3.77,-6.3l79.31 -42.33c3.47,-1.85 7.8,-0.54 9.65,2.94 1.86,3.48 0.55,7.8 -2.93,9.65l-67.51 36.04 67.51 36.03c3.48,1.85 4.79,6.18 2.93,9.65 -1.28,2.41 -3.75,3.78 -6.3,3.78z"/>
   <path class="fil5" d="M319.65 298.97c-2.55,0 -5.02,-1.37 -6.3,-3.78 -1.86,-3.47 -0.54,-7.8 2.93,-9.65l67.51 -36.03 -67.51 -36.03c-3.47,-1.86 -4.79,-6.18 -2.93,-9.66 1.85,-3.48 6.18,-4.79 9.65,-2.93l79.31 42.33c2.32,1.24 3.77,3.66 3.77,6.29 0,2.63 -1.45,5.06 -3.77,6.3l-79.31 42.32c-1.07,0.57 -2.22,0.84 -3.35,0.84z"/>
   <path class="fil5" d="M227.85 330.31c-0.89,0 -1.8,-0.17 -2.68,-0.53 -3.65,-1.48 -5.41,-5.65 -3.92,-9.3l59.9 -147.33c1.49,-3.65 5.65,-5.41 9.3,-3.92 3.65,1.48 5.41,5.65 3.92,9.3l-59.9 147.33c-1.13,2.77 -3.8,4.45 -6.62,4.45z"/>
   <g>
    <path class="fil6" d="M390.6 153.97c-0.25,0 -0.5,-0.01 -0.75,-0.05l-90.79 -11.82c-2.89,-0.38 -5.05,-2.84 -5.05,-5.75l0 -130.55c0,-1.66 0.71,-3.24 1.95,-4.34 1.24,-1.1 2.9,-1.61 4.54,-1.42l90.79 10.92c2.91,0.35 5.11,2.82 5.11,5.76l0 131.46c0,1.66 -0.72,3.25 -1.97,4.35 -1.07,0.94 -2.43,1.44 -3.83,1.44z"/>
    <path class="fil6" d="M390.6 153.97c-1.4,0 -2.76,-0.5 -3.83,-1.44 -1.25,-1.1 -1.97,-2.69 -1.97,-4.36l0 -131.45c0,-2.94 2.2,-5.41 5.11,-5.76l90.79 -10.92c1.65,-0.19 3.3,0.32 4.54,1.42 1.24,1.1 1.95,2.68 1.95,4.34l0 130.55c0,2.91 -2.16,5.37 -5.05,5.75l-90.79 11.82c-0.25,0.04 -0.5,0.05 -0.75,0.05z"/>
    <path class="fil7" d="M368.5 51.6l-46.59 0c-3.2,0 -5.8,-2.6 -5.8,-5.8 0,-3.2 2.6,-5.8 5.8,-5.8l46.59 0c3.2,0 5.8,2.6 5.8,5.8 0,3.2 -2.6,5.8 -5.8,5.8z"/>
    <path class="fil7" d="M368.5 82.78l-46.59 0c-3.2,0 -5.8,-2.59 -5.8,-5.79 0,-3.21 2.6,-5.8 5.8,-5.8l46.59 0c3.2,0 5.8,2.59 5.8,5.8 0,3.2 -2.6,5.79 -5.8,5.79z"/>
    <path class="fil7" d="M368.5 113.97l-46.59 0c-3.2,0 -5.8,-2.59 -5.8,-5.8 0,-3.2 2.6,-5.79 5.8,-5.79l46.59 0c3.2,0 5.8,2.59 5.8,5.8 0,3.2 -2.6,5.79 -5.8,5.79z"/>
    <path class="fil7" d="M459.29 51.6l-46.59 0c-3.2,0 -5.8,-2.6 -5.8,-5.8 0,-3.2 2.6,-5.8 5.8,-5.8l46.59 0c3.2,0 5.8,2.6 5.8,5.8 0,3.2 -2.6,5.8 -5.8,5.8z"/>
    <path class="fil7" d="M459.29 82.78l-46.59 0c-3.2,0 -5.8,-2.59 -5.8,-5.79 0,-3.21 2.6,-5.8 5.8,-5.8l46.59 0c3.2,0 5.8,2.59 5.8,5.8 0,3.2 -2.6,5.79 -5.8,5.79z"/>
    <path class="fil7" d="M459.29 113.97l-46.59 0c-3.2,0 -5.8,-2.59 -5.8,-5.8 0,-3.2 2.6,-5.79 5.8,-5.79l46.59 0c3.2,0 5.8,2.59 5.8,5.8 0,3.2 -2.6,5.79 -5.8,5.79z"/>
   </g>
  </g>
 </g>
</svg>
